<svg xmlns="http://www.w3.org/2000/svg" xmlns:v="https://svgstorm.com"
viewBox = "0 0 200 200"
width="200"
height="200">
<g fill="None" fill-opacity="0.0" stroke="#030303" stroke-opacity="1.00" stroke-width="0.3"><path d="
M 0.00 200.00 
L 200.00 200.00
L 200.00 0.00
L 0.00 0.00
L 0.00 200.00
M 69.00 92.00 
C 68.02 89.33 59.54 84.19 58.25 81.75 C 56.96 79.31 47.14 72.05 49.00 71.00
C 54.85 67.69 65.12 72.53 72.00 71.00 C 78.88 69.47 87.62 71.77 95.00 71.00 C 102.38 70.23 111.46 71.58 119.00 71.00
C 102.83 88.00 85.95 104.88 69.00 121.00
C 69.00 111.33 69.00 101.67 69.00 92.00
M 131.00 108.00 
C 131.98 110.67 140.46 115.81 141.75 118.25 C 143.04 120.69 152.86 127.95 151.00 129.00
C 145.15 132.31 134.88 127.47 128.00 129.00 C 121.12 130.53 112.38 128.23 105.00 129.00 C 97.62 129.77 88.54 128.42 81.00 129.00
C 97.17 112.00 114.05 95.12 131.00 79.00
C 131.00 88.67 131.00 98.33 131.00 108.00 Z"/>
</g>
<g fill="None" fill-opacity="0.0" stroke="#7E7E7E" stroke-opacity="1.00" stroke-width="0.3"><path d="
M 69.00 92.00 
C 66.45 83.47 52.37 79.22 49.00 71.00
C 47.14 72.05 56.96 79.31 58.25 81.75 C 59.54 84.19 68.02 89.33 69.00 92.00 Z"/>
</g>
<g fill="None" fill-opacity="0.0" stroke="#F8F8F7" stroke-opacity="1.00" stroke-width="0.3"><path d="
M 69.00 92.00 
C 69.00 101.67 69.00 111.33 69.00 121.00
C 85.95 104.88 102.83 88.00 119.00 71.00
C 111.46 71.58 102.38 70.23 95.00 71.00 C 87.62 71.77 78.88 69.47 72.00 71.00 C 65.12 72.53 54.85 67.69 49.00 71.00
C 52.37 79.22 66.45 83.47 69.00 92.00 Z"/>
</g>
<g fill="None" fill-opacity="0.0" stroke="#F5FAF9" stroke-opacity="1.00" stroke-width="0.3"><path d="
M 151.00 129.00 
C 147.56 120.74 133.54 116.47 131.00 108.00
C 131.00 98.33 131.00 88.67 131.00 79.00
C 114.05 95.12 97.17 112.00 81.00 129.00
C 88.54 128.42 97.62 129.77 105.00 129.00 C 112.38 128.23 121.12 130.53 128.00 129.00 C 134.88 127.47 145.15 132.31 151.00 129.00 Z"/>
</g>
<g fill="None" fill-opacity="0.0" stroke="#7C8080" stroke-opacity="1.00" stroke-width="0.3"><path d="
M 151.00 129.00 
C 152.86 127.95 143.04 120.69 141.75 118.25 C 140.46 115.81 131.98 110.67 131.00 108.00
C 133.54 116.47 147.56 120.74 151.00 129.00 Z"/>
</g>
<g fill="#030303" fill-opacity="1.00" stroke="None">
<path d="
M 0.00 200.00 
L 200.00 200.00
L 200.00 0.00
L 0.00 0.00
L 0.00 200.00
M 69.00 92.00 
C 68.02 89.33 59.54 84.19 58.25 81.75 C 56.96 79.31 47.14 72.05 49.00 71.00
C 54.85 67.69 65.12 72.53 72.00 71.00 C 78.88 69.47 87.62 71.77 95.00 71.00 C 102.38 70.23 111.46 71.58 119.00 71.00
C 102.83 88.00 85.95 104.88 69.00 121.00
C 69.00 111.33 69.00 101.67 69.00 92.00
M 131.00 108.00 
C 131.98 110.67 140.46 115.81 141.75 118.25 C 143.04 120.69 152.86 127.95 151.00 129.00
C 145.15 132.31 134.88 127.47 128.00 129.00 C 121.12 130.53 112.38 128.23 105.00 129.00 C 97.62 129.77 88.54 128.42 81.00 129.00
C 97.17 112.00 114.05 95.12 131.00 79.00
C 131.00 88.67 131.00 98.33 131.00 108.00 Z"/>
</g>
<g fill="#7E7E7E" fill-opacity="1.00" stroke="None">
<path d="
M 69.00 92.00 
C 66.45 83.47 52.37 79.22 49.00 71.00
C 47.14 72.05 56.96 79.31 58.25 81.75 C 59.54 84.19 68.02 89.33 69.00 92.00 Z"/>
</g>
<g fill="#F8F8F7" fill-opacity="1.00" stroke="None">
<path d="
M 69.00 92.00 
C 69.00 101.67 69.00 111.33 69.00 121.00
C 85.95 104.88 102.83 88.00 119.00 71.00
C 111.46 71.58 102.38 70.23 95.00 71.00 C 87.62 71.77 78.88 69.47 72.00 71.00 C 65.12 72.53 54.85 67.69 49.00 71.00
C 52.37 79.22 66.45 83.47 69.00 92.00 Z"/>
</g>
<g fill="#F5FAF9" fill-opacity="1.00" stroke="None">
<path d="
M 151.00 129.00 
C 147.56 120.74 133.54 116.47 131.00 108.00
C 131.00 98.33 131.00 88.67 131.00 79.00
C 114.05 95.12 97.17 112.00 81.00 129.00
C 88.54 128.42 97.62 129.77 105.00 129.00 C 112.38 128.23 121.12 130.53 128.00 129.00 C 134.88 127.47 145.15 132.31 151.00 129.00 Z"/>
</g>
<g fill="#7C8080" fill-opacity="1.00" stroke="None">
<path d="
M 151.00 129.00 
C 152.86 127.95 143.04 120.69 141.75 118.25 C 140.46 115.81 131.98 110.67 131.00 108.00
C 133.54 116.47 147.56 120.74 151.00 129.00 Z"/>
</g>
</svg>